<svg xmlns="http://www.w3.org/2000/svg" viewBox="0 0 120 120" role="img" aria-label="ManoVarta">
  <defs>
    <linearGradient id="mvBg" x1="14%" x2="88%" y1="10%" y2="92%">
      <stop offset="0%" stop-color="#274650"/>
      <stop offset="100%" stop-color="#182c34"/>
    </linearGradient>
    <linearGradient id="mvAccent" x1="20%" x2="82%" y1="18%" y2="86%">
      <stop offset="0%" stop-color="#d8af73"/>
      <stop offset="100%" stop-color="#b96c4b"/>
    </linearGradient>
    <linearGradient id="mvIvory" x1="22%" x2="78%" y1="12%" y2="100%">
      <stop offset="0%" stop-color="#fff8f0"/>
      <stop offset="100%" stop-color="#f0e2d2"/>
    </linearGradient>
  </defs>
  <rect x="10" y="10" width="100" height="100" rx="34" fill="url(#mvBg)"/>
  <circle cx="60" cy="60" r="35" fill="rgba(255,255,255,0.06)" />
  <path d="M60 25c19.2 0 34.8 15.6 34.8 34.8S79.3 94.7 60 94.7c-3.5 0-6.4 1.2-9.4 4.2l-5.8 5.7c-1.7 1.7-4.5.2-3.9-2.2l2.2-8.6c.5-1.9-.1-3.3-1.7-4.6C31.9 83 25.2 72.2 25.2 59.8 25.2 40.6 40.8 25 60 25Z" fill="none" stroke="url(#mvIvory)" stroke-width="4.6" stroke-linecap="round" stroke-linejoin="round"/>
  <path d="M42 52.4c4.5-7.2 10.1-10.8 16.7-10.8 5.3 0 9.1 2.2 11.5 6.6 2.1-4.4 5.8-6.6 11.1-6.6" fill="none" stroke="url(#mvAccent)" stroke-width="4.8" stroke-linecap="round"/>
  <path d="M43.5 73.8v-15c0-1.4 1.8-2.1 2.8-1l12.7 15.2 12.7-15.2c1-1.2 2.9-.5 2.9 1v15" fill="none" stroke="url(#mvIvory)" stroke-width="4.8" stroke-linecap="round" stroke-linejoin="round"/>
  <circle cx="83.5" cy="37" r="4.4" fill="url(#mvAccent)"/>
  <path d="M31 33.5c6.5-7.4 16.1-12.3 27.3-12.3" fill="none" stroke="rgba(216,175,115,0.55)" stroke-width="2.6" stroke-linecap="round"/>
</svg>
