<svg xmlns="http://www.w3.org/2000/svg" viewBox="0 0 96 96" role="img" aria-label="ManoVarta">
  <defs>
    <linearGradient id="mvStroke" x1="12%" x2="88%" y1="12%" y2="88%">
      <stop offset="0%" stop-color="#285f64"/>
      <stop offset="100%" stop-color="#15393e"/>
    </linearGradient>
    <linearGradient id="mvFill" x1="18%" x2="82%" y1="10%" y2="100%">
      <stop offset="0%" stop-color="#fff8ef"/>
      <stop offset="100%" stop-color="#efe2d0"/>
    </linearGradient>
  </defs>
  <rect x="8" y="8" width="80" height="80" rx="28" fill="url(#mvFill)" stroke="rgba(29,74,79,0.14)" stroke-width="2"/>
  <path d="M48 18c15.4 0 28 12.6 28 28 0 15.7-12.5 28.2-27.9 28.2-2.5 0-4.6 1.1-7.1 3.6l-5.2 5.1c-1.5 1.5-4 .1-3.5-2l1.9-7.3c.4-1.5-.1-2.6-1.3-3.6C24.1 64.5 20 55.8 20 46c0-15.4 12.6-28 28-28Z" fill="none" stroke="url(#mvStroke)" stroke-width="4.5" stroke-linecap="round" stroke-linejoin="round"/>
  <path d="M31 39c4-6.6 8.3-9.9 13-9.9 4.5 0 7.6 1.8 9.4 5.5 1.7-3.7 4.7-5.5 9.1-5.5 4.2 0 7.6 1.8 10.5 5.4" fill="none" stroke="url(#mvStroke)" stroke-width="4.5" stroke-linecap="round"/>
  <path d="M32.5 58V43.7c0-1.4 1.8-2 2.6-.9l8.6 12.1 8.7-12.2c.8-1 2.5-.5 2.5.9V58" fill="none" stroke="url(#mvStroke)" stroke-width="4.5" stroke-linecap="round" stroke-linejoin="round"/>
  <circle cx="68.5" cy="25.5" r="3.5" fill="#c67b4a"/>
</svg>
