<svg xmlns="http://www.w3.org/2000/svg" viewBox="0 0 64 64" role="img" aria-label="ManoVarta">
  <defs>
    <linearGradient id="bg" x1="14%" x2="86%" y1="10%" y2="92%">
      <stop offset="0%" stop-color="#234f55"/>
      <stop offset="100%" stop-color="#112f33"/>
    </linearGradient>
    <linearGradient id="ring" x1="20%" x2="80%" y1="20%" y2="80%">
      <stop offset="0%" stop-color="#fff8ef"/>
      <stop offset="100%" stop-color="#f0e1cf"/>
    </linearGradient>
  </defs>
  <rect width="64" height="64" rx="18" fill="url(#bg)"/>
  <path d="M32 12c11 0 20 9 20 20 0 11-8.8 19.9-19.7 19.9-1.7 0-3.1.8-4.9 2.4l-3.4 3c-1 .9-2.5 0-2.2-1.4l1.2-4.4c.2-1-.1-1.7-.9-2.4C15.5 44.8 12 38.8 12 32c0-11 9-20 20-20Z" fill="none" stroke="url(#ring)" stroke-width="3.4" stroke-linecap="round" stroke-linejoin="round"/>
  <path d="M23.5 27.5c2.7-4.3 5.8-6.5 9.4-6.5 3.2 0 5.4 1.2 6.7 3.7 1.2-2.4 3.4-3.7 6.4-3.7" fill="none" stroke="url(#ring)" stroke-width="3.3" stroke-linecap="round"/>
  <path d="M24.5 40.5v-9.1c0-1 .9-1.4 1.5-.7l6.2 8.4 6.2-8.4c.5-.7 1.5-.3 1.5.7v9.1" fill="none" stroke="url(#ring)" stroke-width="3.3" stroke-linecap="round" stroke-linejoin="round"/>
  <circle cx="46.5" cy="17.5" r="2.3" fill="#d48d58"/>
</svg>
