<svg xmlns="http://www.w3.org/2000/svg" viewBox="0 0 64 64" role="img" aria-label="ManoVarta">
  <defs>
    <linearGradient id="favBg" x1="14%" x2="88%" y1="10%" y2="92%">
      <stop offset="0%" stop-color="#274650"/>
      <stop offset="100%" stop-color="#182c34"/>
    </linearGradient>
    <linearGradient id="favAccent" x1="20%" x2="82%" y1="18%" y2="86%">
      <stop offset="0%" stop-color="#d8af73"/>
      <stop offset="100%" stop-color="#b96c4b"/>
    </linearGradient>
    <linearGradient id="favIvory" x1="22%" x2="78%" y1="12%" y2="100%">
      <stop offset="0%" stop-color="#fff8f0"/>
      <stop offset="100%" stop-color="#f0e2d2"/>
    </linearGradient>
  </defs>
  <rect width="64" height="64" rx="18" fill="url(#favBg)"/>
  <path d="M32 12c11 0 20 9 20 20S43 52 32 52c-2 0-3.5.7-5.2 2.4l-3.2 3.1c-.9.9-2.4.1-2.1-1.2l1.2-4.9c.3-1-.1-1.8-.9-2.4C15.5 43.8 12 38.3 12 32c0-11 9-20 20-20Z" fill="none" stroke="url(#favIvory)" stroke-width="3.2" stroke-linecap="round" stroke-linejoin="round"/>
  <path d="M21.5 28.2c2.7-4.2 6.2-6.3 10.3-6.3 3.2 0 5.6 1.3 7 4 1.4-2.7 3.7-4 6.9-4" fill="none" stroke="url(#favAccent)" stroke-width="3.2" stroke-linecap="round"/>
  <path d="M22.8 40.8v-9.1c0-1 .9-1.5 1.6-.8l7.4 8.7 7.4-8.7c.7-.8 1.7-.2 1.7.8v9.1" fill="none" stroke="url(#favIvory)" stroke-width="3.2" stroke-linecap="round" stroke-linejoin="round"/>
  <circle cx="44.8" cy="19.5" r="2.6" fill="url(#favAccent)"/>
</svg>
